<?xml version="1.0" standalone="no"?>
<!DOCTYPE svg PUBLIC "-//W3C//DTD SVG 20010904//EN"
 "http://www.w3.org/TR/2001/REC-SVG-20010904/DTD/svg10.dtd">
<svg version="1.0" xmlns="http://www.w3.org/2000/svg"
 width="700.000000pt" height="700.000000pt" viewBox="0 0 700.000000 700.000000"
 preserveAspectRatio="xMidYMid meet">
<metadata>
Created by potrace 1.14, written by Peter Selinger 2001-2017
</metadata>
<g transform="translate(0.000000,700.000000) scale(0.100000,-0.100000)"
fill="#000000" stroke="none">
<path d="M1390 6985 c-308 -48 -560 -158 -795 -345 -56 -45 -207 -196 -248
-248 -146 -186 -267 -446 -311 -667 -8 -44 -19 -93 -23 -110 -11 -44 -13
-4106 -3 -4190 49 -379 216 -718 477 -967 88 -84 80 -78 148 -129 205 -157
461 -266 730 -311 65 -10 467 -13 2145 -13 l2065 0 112 23 c275 56 542 181
738 347 184 157 360 394 443 599 30 74 39 98 40 106 0 3 7 23 15 45 17 44 45
156 53 207 2 18 8 60 13 93 6 35 9 900 9 2080 0 2179 2 2087 -53 2298 -72 276
-223 536 -425 732 -85 83 -84 82 -135 121 -237 183 -495 290 -805 333 -38 6
-910 9 -2085 9 -1626 0 -2037 -3 -2105 -13z"/>
</g>
</svg>
